# AST/ASF file generated using VICON BodyLanguage
# -----------------------------------------------
:version 1.10
:name VICON
:units
  mass 1.0
  length 0.45
  angle deg
:documentation
   .ast/.asf automatically generated from VICON data using
   VICON BodyBuilder and BodyLanguage model FoxedUp or BRILLIANT.MOD
:root
   order TX TY TZ RX RY RZ
   axis XYZ
   position 0 0 0  
   orientation 0 0 0 
:bonedata
  begin
     id 1 
     name lhipjoint
     direction 0.635376 -0.686425 0.353719 
     length 2.47244 
     axis 0 0 0  XYZ
  end
  begin
     id 2 
     name lfemur
     direction 0.34202 -0.939693 0  
     length 7.25268  
     axis 0 0 20  XYZ
    dof rx ry rz
    limits (-160.0 20.0)
           (-70.0 70.0)
           (-60.0 70.0)
  end
  begin
     id 3 
     name ltibia
     direction 0.34202 -0.939693 0   
     length 7.6767   
     axis 0 0 20   XYZ
    dof rx
    limits (-10.0 170.0)
  end
  begin
     id 4 
     name lfoot
     direction 0.0803374 -0.220725 0.972022   
     length 2.22945   
     axis -90 7.62852e-016 20   XYZ
    dof rx rz
    limits (-45.0 90.0)
           (-70.0 20.0)
  end
  begin
     id 5 
     name ltoes
     direction 1.53579e-011 -4.21994e-011 1   
     length 1.11848   
     axis -90 7.62852e-016 20   XYZ
    dof rx
    limits (-90.0 20.0)
  end
  begin
     id 6 
     name rhipjoint
     direction -0.664428 -0.664335 0.342336   
     length 2.55466  
     axis 0 0 0  XYZ 
  end
  begin
     id 7 
     name rfemur
     direction -0.34202 -0.939693 0   
     length 6.83172   
     axis 0 0 -20   XYZ
    dof rx ry rz
    limits (-160.0 20.0)
           (-70.0 70.0)
           (-70.0 60.0)
  end
  begin
     id 8 
     name rtibia
     direction -0.34202 -0.939693 0   
     length 7.62692   
     axis 0 0 -20   XYZ
    dof rx
    limits (-10.0 170.0)
 end
 begin
     id 9 
     name rfoot
     direction -0.0949276 -0.260811 0.960711   
     length 2.19684  
     axis -90 -7.62852e-016 -20   XYZ
    dof rx rz
    limits (-45.0 90.0)
           (-20.0 70.0)
  end
  begin
     id 10 
     name rtoes
     direction -1.53543e-011 -4.2183e-011 1   
     length 1.09848   
     axis -90 -7.62852e-016 -20   XYZ
    dof rx
    limits (-90.0 20.0)
  end
  begin
     id 11 
     name lowerback
     direction 0.0118782 0.999815 -0.0151555   
     length 2.15772   
     axis 0 0 0   XYZ
    dof rx ry rz
    limits (-20.0 45.0)
           (-30.0 30.0)
           (-30.0 30.0)
  end
  begin
     id 12 
     name upperback
     direction 0.00130825 0.999065 0.0432113   
     length 2.14863   
     axis 0 0 0   XYZ
    dof rx ry rz
    limits (-20.0 45.0)
           (-30.0 30.0)
           (-30.0 30.0)
  end
  begin
     id 13 
     name thorax
     direction -0.00347005 0.998773 0.0494011   
     length 2.14936   
     axis 0 0 0   XYZ
    dof rx ry rz
    limits (-20.0 45.0)
           (-30.0 30.0)
           (-30.0 30.0)
  end
  begin
     id 14 
     name lowerneck
     direction -0.0262159 0.99424 0.103921   
     length 1.69373   
     axis 0 0 0   XYZ
    dof rx ry rz
    limits (-20.0 45.0)
           (-30.0 30.0)
           (-30.0 30.0)
  end
  begin
     id 15 
     name upperneck
     direction 0.0353511 0.977394 -0.20845   
     length 1.70857   
     axis 0 0 0   XYZ
    dof rx ry rz
    limits (-20.0 45.0)
           (-30.0 30.0)
           (-30.0 30.0)
  end
  begin
     id 16
     name head
     direction 0.0139214 0.996594 -0.0812836  
     length 1.72777  
     axis 0 0 0   XYZ
    dof rx ry rz
    limits (-20.0 45.0)
           (-30.0 30.0)
           (-30.0 30.0)
  end
  begin
     id 17 
     name lclavicle
     direction 0.841247 0.537205 -0.0609508  
     length 3.55371  
     axis 0 0 0   XYZ
    dof ry rz
    limits (-20.0 10.0)
           (0.0 20.0)
  end
  begin
     id 18 
     name lhumerus
     direction 1 -4.48964e-011 1.60116e-018   
     length 4.91377   
     axis -180 -30 -90   XYZ
    dof rx ry rz
    limits (-60.0 90.0)
           (-90.0 90.0)
           (-90.0 90.0)
  end
  begin
     id 19
     name lradius
     direction 1 -4.48989e-011 -8.93847e-027   
     length 3.00291   
     axis -180 -30 -90   XYZ
    dof rx
    limits (-10.0 170.0)
  end
  begin
     id 20
     name lwrist
     direction 1 -4.48932e-011 -7.31504e-027   
     length 1.50145   
     axis 5.74121e-015 90 90   XYZ
    dof ry
    limits (-180.0 0.0)
 end
  begin
     id 21 
     name lhand
     direction 1 -4.48971e-011 -1.46301e-026   
     length 0.450922   
     axis 9.33524e-015 90 90   XYZ
    dof rx rz
    limits (-90.0 90.0)
           (-45.0 45.0)
  end
  begin
     id 22 
     name lfingers
     direction 1 -4.49039e-011 -2.92602e-026   
     length 0.363545   
     axis 1.86705e-014 90 90   XYZ
    dof rx
    limits (0.0 90.0)
  end
  begin
     id 23
     name lthumb
     direction 0.707107 -6.34941e-011 0.707107   
     length 0.52198   
     axis -90 45 2.85299e-015   XYZ
    dof rx rz
    limits (-45.0 45.0)
           (-45.0 45.0)
  end
  begin
     id 24 
     name rclavicle
     direction -0.825079 0.56158 -0.0622297   
     length 3.39909  
     axis 0 0 0   XYZ 
    dof ry rz
    limits (-10.0 20.0)
           (-20.0 0.0)
  end
  begin
     id 25 
     name rhumerus
     direction -1 -4.48965e-011 1.61691e-027  
     length 4.86725   
     axis -180 30 90   XYZ
    dof rx ry rz
    limits (-90.0 60.0)
           (-90.0 90.0)
           (-90.0 90.0)
  end
  begin
     id 26 
     name rradius
     direction -1 -4.48964e-011 -2.25776e-027   
     length 3.17144   
     axis -180 30 90   XYZ
    dof rx
    limits (-10.0 170.0)
  end
  begin
     id 27 
     name rwrist
     direction -1 -4.48961e-011 -7.31504e-027   
     length 1.58572   
     axis 5.74121e-015 -90 -90   XYZ
    dof ry
    limits (-180.0 0.0)
  end
  begin
     id 28
     name rhand
     direction -1 -4.49013e-011 -1.46301e-026   
     length 0.419368   
     axis 9.33524e-015 -90 -90   XYZ
    dof rx rz
    limits (-90.0 90.0)
           (-45.0 45.0)
  end
  begin
     id 29
     name rfingers
     direction -1 -4.489e-011 -2.92602e-026   
     length 0.338105   
     axis 1.86705e-014 -90 -90   XYZ
    dof rx
    limits (0.0 90.0)
  end
  begin
     id 30
     name rthumb
     direction -0.707107 -6.35022e-011 0.707107   
     length 0.485453   
     axis -90 -45 -2.85299e-015   XYZ
    dof rx rz
    limits (-45.0 45.0)
           (-45.0 45.0)
  end
:hierarchy
  begin
    root lhipjoint rhipjoint lowerback
    lhipjoint lfemur
    lfemur ltibia
    ltibia lfoot
    lfoot ltoes
    rhipjoint rfemur
    rfemur rtibia
    rtibia rfoot
    rfoot rtoes
    lowerback upperback
    upperback thorax
    thorax lowerneck lclavicle rclavicle
    lowerneck upperneck
    upperneck head
    lclavicle lhumerus
    lhumerus lradius
    lradius lwrist
    lwrist lhand lthumb
    lhand lfingers
    rclavicle rhumerus
    rhumerus rradius
    rradius rwrist
    rwrist rhand rthumb
    rhand rfingers
  end

#!OML:ASF H:\Swim 2\Project 1\Capture day 1\Session 1\male.ASF
:FULLY-SPECIFIED
:DEGREES
536
root 1.24457 12.8799 8.82112 85.5996 -3.10834 -3.68482
lowerback -12.2472 2.61741 -9.16819
upperback -5.58354 4.54956 5.54732
thorax -0.30136 2.66859 11.7232
lowerneck -21.75 -4.07253 -4.27103
upperneck 17.5755 -3.60586 -2.67975
head 9.14137 -2.27652 -0.736871
rclavicle -7.95139e-014 -6.12257e-014
rhumerus 66.2791 -5.13617 5.84865
rradius 30.3514
rwrist -12.9258
rhand -25.4574 -5.43607
rfingers 7.12502
rthumb 1.06983 -35.4131
lclavicle -7.95139e-014 -6.12257e-014
lhumerus 79.7812 1.6719 77.1672
lradius 13.8816
lwrist -24.6358
lhand -41.3883 -17.1038
lfingers 7.12502
lthumb -14.3058 12.3834
rfemur -58.5977 7.71316 12.8321
rtibia 45.547
rfoot 8.91054 5.60689
rtoes 19.509
lfemur -58.5048 -0.265255 -22.0469
ltibia 53.6941
lfoot -5.48765 3.22961
ltoes -3.56092
537
root 1.24104 12.8927 8.79325 85.6467 -2.99596 -3.4422
lowerback -12.1083 2.57806 -9.23034
upperback -5.61884 4.49343 5.53796
thorax -0.404786 2.64962 11.7319
lowerneck -21.5664 -4.16905 -4.18295
upperneck 16.7081 -3.8223 -2.58328
head 8.80867 -2.34968 -0.729391
rclavicle 6.36111e-015 4.77083e-015
rhumerus 65.0489 -4.76743 6.34987
rradius 30.4501
rwrist -13.0111
rhand -25.568 -5.4079
rfingers 7.12502
rthumb 0.962956 -35.3855
lclavicle 6.36111e-015 4.77083e-015
lhumerus 79.0874 1.87256 76.3665
lradius 13.9976
lwrist -24.6803
lhand -41.4429 -16.7284
lfingers 7.12502
lthumb -14.3584 12.7551
rfemur -58.3843 7.42113 13.1006
rtibia 45.5934
rfoot 7.46267 4.5694
rtoes 19.0196
lfemur -58.651 -0.381628 -21.9861
ltibia 54.4651
lfoot -6.08467 2.49297
ltoes -4.36543
538
root 1.23719 12.9067 8.76533 85.6624 -2.88537 -3.21642
lowerback -11.9386 2.54995 -9.29286
upperback -5.64441 4.44993 5.53884
thorax -0.518997 2.63757 11.7516
lowerneck -21.3681 -4.26921 -4.13333
upperneck 15.8452 -4.03008 -2.48546
head 8.47947 -2.42275 -0.713375
rclavicle -1.74931e-014 -6.12257e-014
rhumerus 63.848 -4.3695 6.82036
rradius 30.473
rwrist -12.954
rhand -25.7469 -5.42218
rfingers 7.12502
rthumb 0.790187 -35.4005
lclavicle -1.74931e-014 -6.12257e-014
lhumerus 78.3316 2.03265 75.411
lradius 14.1674
lwrist -24.433
lhand -41.461 -16.2251
lfingers 7.12502
lthumb -14.3759 13.2571
rfemur -58.1616 7.13728 13.3819
rtibia 45.7204
rfoot 5.9796 3.49462
rtoes 18.3328
lfemur -58.779 -0.449408 -21.9486
ltibia 55.3802
lfoot -6.48871 1.75384
ltoes -5.01133
539
root 1.23325 12.921 8.73728 85.6503 -2.78612 -3.02227
lowerback -11.7553 2.5381 -9.36488
upperback -5.66246 4.42837 5.55139
thorax -0.640542 2.63755 11.7916
lowerneck -21.1577 -4.37211 -4.11768
upperneck 15.0113 -4.2256 -2.40485
head 8.16187 -2.49556 -0.695845
rclavicle 5.56597e-014 3.97569e-014
rhumerus 62.6789 -3.94367 7.24989
rradius 30.4338
rwrist -12.7933
rhand -25.9216 -5.51973
rfingers 7.12502
rthumb 0.621467 -35.4986
lclavicle 5.56597e-014 3.97569e-014
lhumerus 77.4915 2.12641 74.2433
lradius 14.4093
lwrist -23.7298
lhand -41.3875 -15.6661
lfingers 7.12502
lthumb -14.305 13.8212
rfemur -57.933 6.85587 13.6759
rtibia 45.938
rfoot 4.48542 2.4957
rtoes 17.592
lfemur -58.8861 -0.458386 -21.9404
ltibia 56.4414
lfoot -6.7684 1.05979
ltoes -5.53021
540
root 1.22937 12.9352 8.70944 85.6046 -2.70618 -2.87701
lowerback -11.5636 2.54577 -9.44211
upperback -5.66617 4.43298 5.57246
thorax -0.759775 2.65055 11.8464
lowerneck -20.9578 -4.46742 -4.12528
upperneck 14.2291 -4.39466 -2.35512
head 7.86621 -2.56196 -0.68213
rclavicle -4.29375e-014 -1.03368e-014
rhumerus 61.5418 -3.48929 7.6667
rradius 30.3547
rwrist -12.6175
rhand -26.073 -5.71179
rfingers 7.12502
rthumb 0.475285 -35.691
lclavicle -4.29375e-014 -1.03368e-014
lhumerus 76.5575 2.1338 72.7793
lradius 14.7369
lwrist -22.4164
lhand -41.2286 -15.0468
lfingers 7.12502
lthumb -14.1519 14.4511
rfemur -57.6914 6.5772 13.9858
rtibia 46.2558
rfoot 3.0271 1.69485
rtoes 16.8575
lfemur -58.9566 -0.407098 -21.9583
ltibia 57.6403
lfoot -6.97974 0.457528
ltoes -5.96703
541
root 1.22582 12.9489 8.6818 85.5216 -2.64251 -2.7882
lowerback -11.3691 2.58011 -9.52837
upperback -5.65523 4.47452 5.60517
thorax -0.87721 2.68242 11.9229
lowerneck -20.7977 -4.56297 -4.16211
upperneck 13.5576 -4.54537 -2.32942
head 7.61665 -2.62548 -0.671786
rclavicle 9.06458e-014 3.97569e-014
rhumerus 60.425 -3.02553 8.01174
rradius 30.2682
rwrist -12.5247
rhand -26.0898 -6.03145
rfingers 7.12502
rthumb 0.458985 -36.0107
lclavicle 9.06458e-014 3.97569e-014
lhumerus 75.537 2.01774 71.0347
lradius 15.1408
lwrist -20.4721
lhand -40.9966 -14.3989
lfingers 7.12502
lthumb -13.9283 15.1146
rfemur -57.432 6.29323 14.3255
rtibia 46.6822
rfoot 1.68026 1.19739
rtoes 16.1969
lfemur -58.9839 -0.302812 -21.9895
ltibia 58.9679
lfoot -7.18134 -0.0141732
ltoes -6.42186
542
root 1.22264 12.962 8.65449 85.3975 -2.59748 -2.75854
lowerback -11.1756 2.64314 -9.62565
upperback -5.62577 4.55628 5.64666
thorax -0.987572 2.7343 12.0194
lowerneck -20.6844 -4.65804 -4.2168
upperneck 13.0101 -4.67883 -2.33485
head 7.4174 -2.68646 -0.669587
rclavicle 3.65764e-014 3.97569e-015
rhumerus 59.2926 -2.51921 8.36577
rradius 30.198
rwrist -12.5856
rhand -26.0597 -6.4091
rfingers 7.12502
rthumb 0.488089 -36.3883
lclavicle 3.65764e-014 3.97569e-015
lhumerus 74.4505 1.76161 69.0675
lradius 15.6111
lwrist -17.9796
lhand -40.7171 -13.747
lfingers 7.12502
lthumb -13.659 15.7848
rfemur -57.1527 5.99933 14.698
rtibia 47.2282
rfoot 0.504405 1.06532
rtoes 15.5132
lfemur -58.9588 -0.153281 -22.0284
ltibia 60.4103
lfoot -7.38085 -0.38575
ltoes -6.81237
543
root 1.21989 12.9748 8.62795 85.2298 -2.56177 -2.78374
lowerback -10.9747 2.73161 -9.71794
upperback -5.57847 4.67139 5.69449
thorax -1.09283 2.80218 12.1218
lowerneck -20.6174 -4.75266 -4.28828
upperneck 12.5656 -4.79973 -2.35221
head 7.26099 -2.74468 -0.669691
rclavicle -9.54166e-015 2.14687e-014
rhumerus 58.1448 -1.95207 8.72647
rradius 30.1565
rwrist -12.8553
rhand -26.007 -6.81113
rfingers 7.12502
rthumb 0.538943 -36.7902
lclavicle -9.54166e-015 2.14687e-014
lhumerus 73.3243 1.3715 66.9444
lradius 16.1206
lwrist -15.1008
lhand -40.4328 -13.1748
lfingers 7.12502
lthumb -13.385 16.3752
rfemur -56.8548 5.68726 15.1161
rtibia 47.9063
rfoot -0.444543 1.29952
rtoes 14.7667
lfemur -58.8828 0.0437843 -22.0686
ltibia 61.9543
lfoot -7.59033 -0.683897
ltoes -7.18099
544
root 1.2176 12.9874 8.60191 85.0204 -2.53214 -2.84507
lowerback -10.7588 2.83749 -9.79757
upperback -5.51737 4.80742 5.74369
thorax -1.1969 2.87965 12.2181
lowerneck -20.5855 -4.849 -4.3836
upperneck 12.2039 -4.91468 -2.355
head 7.13922 -2.80071 -0.662643
rclavicle 1.59028e-014 -4.29375e-014
rhumerus 56.9824 -1.3125 9.08682
rradius 30.1529
rwrist -13.3289
rhand -25.9717 -7.22984
rfingers 7.12502
rthumb 0.573069 -37.2088
lclavicle 1.59028e-014 -4.29375e-014
lhumerus 72.1847 0.867771 64.7708
lradius 16.6401
lwrist -12.0662
lhand -40.1465 -12.7768
lfingers 7.12502
lthumb -13.1091 16.7912
rfemur -56.5458 5.34602 15.5751
rtibia 48.7338
rfoot -1.14197 1.83325
rtoes 13.7995
lfemur -58.762 0.271636 -22.1074
ltibia 63.5861
lfoot -7.83947 -0.92717
ltoes -7.60601
545
root 1.21553 13 8.57606 84.772 -2.51151 -2.93498
lowerback -10.5256 2.95707 -9.87111
upperback -5.44343 4.95978 5.79087
thorax -1.3011 2.96452 12.3074
lowerneck -20.5653 -4.94932 -4.49506
upperneck 11.8732 -5.03318 -2.33314
head 7.03102 -2.85712 -0.646134
rclavicle -3.18055e-015 -1.74931e-014
rhumerus 55.8052 -0.599068 9.43386
rradius 30.1898
rwrist -13.9654
rhand -25.9694 -7.63899
rfingers 7.12502
rthumb 0.575329 -37.618
lclavicle -3.18055e-015 -1.74931e-014
lhumerus 71.0586 0.260745 62.5898
lradius 17.1342
lwrist -9.10291
lhand -39.9049 -12.5272
lfingers 7.12502
lthumb -12.8762 17.0556
rfemur -56.2377 4.98046 16.0632
rtibia 49.728
rfoot -1.61738 2.61085
rtoes 12.7952
lfemur -58.5963 0.516715 -22.1423
ltibia 65.2929
lfoot -7.95827 -1.28308
ltoes -7.19045
546
root 1.21363 13.0128 8.55013 84.4918 -2.49784 -3.03347
lowerback -10.2712 3.07866 -9.93197
upperback -5.35767 5.11131 5.83115
thorax -1.40257 3.0473 12.3786
lowerneck -20.5559 -5.04904 -4.61392
upperneck 11.5367 -5.15369 -2.27859
head 6.92408 -2.91162 -0.618128
rclavicle 2.70347e-014 -2.70347e-014
rhumerus 54.6381 0.171577 9.73599
rradius 30.2593
rwrist -14.6731
rhand -25.9549 -8.01719
rfingers 7.12502
rthumb 0.589315 -37.9961
lclavicle 2.70347e-014 -2.70347e-014
lhumerus 69.9606 -0.420363 60.4308
lradius 17.5827
lwrist -6.40759
lhand -39.7154 -12.3961
lfingers 7.12502
lthumb -12.6934 17.1981
rfemur -55.9449 4.58591 16.5672
rtibia 50.9028
rfoot -1.92832 3.5475
rtoes 11.8071
lfemur -58.4005 0.770986 -22.1782
ltibia 67.064
lfoot -7.99204 -1.72563
ltoes -6.27087
